# xmcd
#
# Track frame offsets: 
#        150
#        19535
#        35119
#        58524
#        73801
#        93339
#        108005
#        125143
#        143152
#        162143
#        176825
#        200842
#
# Disc length: 2929 seconds
#
# Revision: 1
# Processed by: cddbd v1.5.2PL0 Copyright (c) Steve Scherf et al.
# Submitted via: ExactAudioCopy v1.0b4
#
DISCID=ac0b6f0c
DTITLE=Shawn Holt and The Teardrops [With Special Guest John Primer] - D
DTITLE=addy Told Me
DYEAR=2013
DGENRE=Blues
TTITLE0=Fannie Mae
TTITLE1=Daddy Told Me
TTITLE2=Hold You Again
TTITLE3=Down In Virginia
TTITLE4=Buddy Buddy Friend
TTITLE5=Get Your Business Straight
TTITLE6=Mean Little Woman
TTITLE7=Before You Accuse Me
TTITLE8=Love Got Me Walkin'
TTITLE9=Little By Little
TTITLE10=Please Don't Dog Me
TTITLE11=You Done Me Wrong
EXTD=
EXTT0=
EXTT1=
EXTT2=
EXTT3=
EXTT4=
EXTT5=
EXTT6=
EXTT7=
EXTT8=
EXTT9=
EXTT10=
EXTT11=
PLAYORDER=
